{
	"asset":{
		"version":"2.0",
		"generator":"Created using the official Cinema 4D glTF Exporter 1.000x290161"
	},
	"scenes":[{
		"nodes":[0,
		1,
		2]
	}],
	"nodes":[{
		"name":"Camera",
		"translation":[405.491,
		201.227,
		429.355],
		"rotation":[0.156,
		-0.377,
		-0.065,
		-0.911],
		"scale":[1,
		1,
		1],
		"camera":0
	},
	{
		"name":"Plane",
		"translation":[0,
		0,
		0],
		"rotation":[-0.707,
		0,
		0,
		-0.707],
		"scale":[1,
		1,
		1],
		"mesh":0
	},
	{
		"name":"Shape 1",
		"translation":[-6.805,
		0,
		0.173],
		"rotation":[0,
		-1,
		0,
		0],
		"scale":[0.8,
		0.8,
		0.8],
		"children":[3]
	},
	{
		"name":"Extrude",
		"translation":[0,
		0,
		0],
		"rotation":[0,
		0,
		0,
		1],
		"scale":[1,
		1,
		1],
		"mesh":1
	}],
	"meshes":[{
		"primitives":[{
			"attributes":{
				"POSITION":1,
				"NORMAL":2,
				"TEXCOORD_0":3
			},
			"indices":0,
			"material":0
		}]
	},
	{
		"primitives":[{
			"attributes":{
				"POSITION":9,
				"NORMAL":10,
				"TEXCOORD_0":11
			},
			"indices":8,
			"material":1
		}]
	}],
	"cameras":[{
		"type":"perspective",
		"perspective":{
			"znear":0.01,
			"zfar":10000000000,
			"aspectRatio":1.778,
			"yfov":0.548
		}
	}],
	"accessors":[{
		"min":[0],
		"bufferView":0,
		"type":"SCALAR",
		"componentType":5123,
		"count":2400,
		"byteOffset":0,
		"max":[440]
	},
	{
		"min":[0,
		-100,
		-100],
		"bufferView":1,
		"type":"VEC3",
		"componentType":5126,
		"count":441,
		"byteOffset":0,
		"max":[0,
		100,
		100]
	},
	{
		"min":[1,
		0,
		0],
		"bufferView":1,
		"type":"VEC3",
		"componentType":5126,
		"count":441,
		"byteOffset":12,
		"max":[1,
		0,
		0]
	},
	{
		"min":[0,
		0],
		"bufferView":1,
		"type":"VEC2",
		"componentType":5126,
		"count":441,
		"byteOffset":24,
		"max":[1,
		1]
	},
	{
		"min":[0],
		"bufferView":2,
		"type":"SCALAR",
		"componentType":5126,
		"count":91,
		"byteOffset":0,
		"max":[3.6]
	},
	{
		"min":[-9.042,
		0,
		-377.095],
		"bufferView":2,
		"type":"VEC3",
		"componentType":5126,
		"count":91,
		"byteOffset":364,
		"max":[195.994,
		0,
		216.662]
	},
	{
		"min":[0],
		"bufferView":3,
		"type":"SCALAR",
		"componentType":5126,
		"count":92,
		"byteOffset":0,
		"max":[3.6]
	},
	{
		"min":[0,
		-1,
		0,
		-1],
		"bufferView":3,
		"type":"VEC4",
		"componentType":5126,
		"count":92,
		"byteOffset":368,
		"max":[0,
		0,
		0,
		1]
	},
	{
		"min":[0],
		"bufferView":4,
		"type":"SCALAR",
		"componentType":5123,
		"count":7332,
		"byteOffset":0,
		"max":[1384]
	},
	{
		"min":[0,
		-50,
		-100],
		"bufferView":5,
		"type":"VEC3",
		"componentType":5126,
		"count":1385,
		"byteOffset":0,
		"max":[1,
		50,
		100]
	},
	{
		"min":[-1,
		-1,
		-1],
		"bufferView":5,
		"type":"VEC3",
		"componentType":5126,
		"count":1385,
		"byteOffset":12,
		"max":[1,
		1,
		1]
	},
	{
		"min":[0,
		0],
		"bufferView":5,
		"type":"VEC2",
		"componentType":5126,
		"count":1385,
		"byteOffset":24,
		"max":[1,
		1]
	}],
	"bufferViews":[{
		"buffer":0,
		"byteOffset":0,
		"byteLength":4800,
		"target":34963
	},
	{
		"buffer":0,
		"byteOffset":4800,
		"byteLength":14112,
		"target":34962,
		"byteStride":32
	},
	{
		"buffer":1,
		"byteOffset":0,
		"byteLength":1456
	},
	{
		"buffer":1,
		"byteOffset":1456,
		"byteLength":1840
	},
	{
		"buffer":2,
		"byteOffset":0,
		"byteLength":14664,
		"target":34963
	},
	{
		"buffer":2,
		"byteOffset":14664,
		"byteLength":44320,
		"target":34962,
		"byteStride":32
	}],
	"buffers":[{
		"uri":"data:application/octet-stream;base64,",
		"byteLength":18912
	},
	{
		"uri":"data:application/octet-stream;base64,",
		"byteLength":3296
	},
	{
		"uri":"data:application/octet-stream;base64,",
		"byteLength":58984
	}],
	"images":[{
		"uri":"data:image/jpeg;base64,"
	}],
	"samplers":[{
		"magFilter":9729,
		"minFilter":9729,
		"wrapS":10497,
		"wrapT":10497
	}],
	"textures":[{
		"sampler":0,
		"source":0
	}],
	"materials":[{
		"pbrMetallicRoughness":{
			"baseColorFactor":[1,
			1,
			1,
			1],
			"metallicFactor":1,
			"roughnessFactor":0
		},
		"emissiveTexture":{
			"index":0
		},
		"emissiveFactor":[1,
		1,
		1],
		"alphaMode":"OPAQUE",
		"doubleSided":false,
		"name":"thisCover"
	},
	{
		"pbrMetallicRoughness":{
			"baseColorFactor":[0.532,
			0.699,
			0.95,
			1],
			"metallicFactor":0,
			"roughnessFactor":0.5
		},
		"emissiveFactor":[0,
		0,
		0],
		"alphaMode":"OPAQUE",
		"doubleSided":false,
		"name":"Mat"
	}],
	"animations":[{
		"samplers":[{
			"input":4,
			"interpolation":"LINEAR",
			"output":5
		},
		{
			"input":6,
			"interpolation":"LINEAR",
			"output":7
		}],
		"channels":[{
			"sampler":0,
			"target":{
				"node":2,
				"path":"translation"
			}
		},
		{
			"sampler":1,
			"target":{
				"node":2,
				"path":"rotation"
			}
		}]
	}]
}